#!OML:ASF F:\VICON\USERDATA\INSTALL\rory3\rory3.ASF
:FULLY-SPECIFIED
:DEGREES
451
root 17.168 15.9007 -13.55 -186.677 69.334 -186.917
lowerback 5.13367 -1.17625 -2.70249
upperback -1.52157 -1.77053 -0.500621
thorax -4.38818 -0.809347 1.1535
lowerneck -8.61705 -11.4824 -15.2716
upperneck 27.3134 -16.2745 12.7496
head 12.9334 -7.21548 5.04906
rclavicle 3.63205e-014 1.66482e-014
rhumerus -41.1018 -1.79869 -83.9821
rradius 29.0215
rwrist 9.99777
rhand -17.06 14.369
rfingers 7.12502
rthumb 9.17748 -15.4113
lclavicle 3.63205e-014 1.66482e-014
lhumerus -35.7333 9.36668 82.0489
lradius 22.8805
lwrist -4.45016
lhand -11.2902 12.5728
lfingers 7.12502
lthumb 14.7409 42.0286
rfemur -19.4079 -1.98083 27.853
rtibia 28.5211
rfoot -25.1804 -30.4948
rtoes 29.2125
lfemur 5.48067 11.1515 -24.7952
ltibia 35.5559
lfoot -5.10028 8.90965
ltoes -13.5201
452
root 17.2358 15.8965 -13.5708 -187.142 69.8193 -187.291
lowerback 5.1841 -1.16094 -2.76822
upperback -1.43792 -1.75528 -0.51853
thorax -4.32902 -0.801833 1.17057
lowerneck -8.5775 -11.5538 -15.3496
upperneck 27.2811 -16.3944 12.8243
head 12.9501 -7.27288 5.06837
rclavicle 1.09075e-014 1.2921e-015
rhumerus -40.8113 -1.73034 -84.0605
rradius 29.0893
rwrist 9.8048
rhand -17.0698 14.611
rfingers 7.12502
rthumb 9.168 -15.1697
lclavicle 1.09075e-014 1.2921e-015
lhumerus -35.6374 9.2972 81.963
lradius 22.6276
lwrist -4.64646
lhand -11.4582 12.4554
lfingers 7.12502
lthumb 14.5791 41.923
rfemur -19.086 -2.01819 27.8563
rtibia 28.6439
rfoot -24.6618 -30.2603
rtoes 28.6937
lfemur 4.94637 11.7491 -24.4849
ltibia 37.1188
lfoot -3.90825 8.332
ltoes -13.6715
453
root 17.2999 15.8889 -13.5904 -187.674 70.3516 -187.772
lowerback 5.29158 -1.11128 -2.80329
upperback -1.41579 -1.69736 -0.596725
thorax -4.37059 -0.772447 1.10671
lowerneck -8.44657 -11.6076 -15.3758
upperneck 27.281 -16.5167 12.9316
head 12.9598 -7.32345 5.09854
rclavicle 5.91078e-014 -4.96962e-016
rhumerus -40.6547 -1.6871 -84.1974
rradius 29.2601
rwrist 9.57434
rhand -16.9575 14.6653
rfingers 7.12502
rthumb 9.27634 -15.1106
lclavicle 5.91078e-014 -4.96962e-016
lhumerus -35.6525 9.46085 81.6864
lradius 22.383
lwrist -5.18244
lhand -11.5171 12.4685
lfingers 7.12502
lthumb 14.5223 41.9403
rfemur -18.7719 -1.89636 27.8179
rtibia 28.7125
rfoot -24.361 -30.0018
rtoes 28.8217
lfemur 4.31649 12.2592 -24.2718
ltibia 38.7357
lfoot -2.86663 7.88308
ltoes -13.5358
454
root 17.3579 15.8798 -13.6081 -186.947 71.0299 -186.985
lowerback 5.49168 -1.06844 -2.42554
upperback -1.46987 -1.62008 -0.533164
thorax -4.55107 -0.74116 0.959515
lowerneck -8.33496 -11.6235 -15.3706
upperneck 27.3073 -16.5777 13.0001
head 12.9657 -7.34649 5.12025
rclavicle 7.17127e-014 3.23025e-016
rhumerus -40.6002 -1.63588 -84.2953
rradius 29.424
rwrist 9.53225
rhand -16.9548 14.4792
rfingers 7.12502
rthumb 9.27898 -15.2966
lclavicle 7.17127e-014 3.23025e-016
lhumerus -35.9191 9.51818 81.4446
lradius 22.4068
lwrist -5.46132
lhand -11.3907 12.5139
lfingers 7.12502
lthumb 14.6441 41.9768
rfemur -18.5034 -1.72895 28.2443
rtibia 28.7016
rfoot -24.1888 -29.5892
rtoes 29.39
lfemur 3.55516 12.887 -23.574
ltibia 40.4237
lfoot -1.66286 7.42346
ltoes -12.3936
455
root 17.416 15.8748 -13.6298 -185.72 71.7074 -185.621
lowerback 5.67059 -1.07968 -1.86026
upperback -1.47819 -1.59497 -0.40126
thorax -4.67267 -0.742099 0.781281
lowerneck -8.23278 -11.5931 -15.402
upperneck 27.2662 -16.5644 13.087
head 12.9377 -7.34161 5.16644
rclavicle -4.56704e-014 -7.33018e-016
rhumerus -40.5244 -1.37569 -84.4558
rradius 29.6143
rwrist 9.35463
rhand -17.0367 14.2233
rfingers 7.12502
rthumb 9.19989 -15.556
lclavicle -4.56704e-014 -7.33018e-016
lhumerus -36.1304 9.66683 81.1921
lradius 22.4488
lwrist -5.63829
lhand -11.2267 12.6117
lfingers 7.12502
lthumb 14.8021 42.0631
rfemur -18.0974 -1.83909 28.8549
rtibia 28.5595
rfoot -23.6426 -29.1582
rtoes 29.2535
lfemur 2.81493 13.4398 -22.6934
ltibia 42.1904
lfoot -0.346424 6.95444
ltoes -11.7121
456
root 17.4754 15.8734 -13.6605 -184.716 72.2564 -184.404
lowerback 5.82714 -1.12772 -1.25267
upperback -1.41669 -1.61245 -0.29582
thorax -4.70986 -0.767064 0.55445
lowerneck -8.16943 -11.5792 -15.5079
upperneck 27.2491 -16.5699 13.2101
head 12.9436 -7.34641 5.23412
rclavicle 1.56341e-014 -4.24902e-015
rhumerus -40.4725 -0.973422 -84.6116
rradius 29.9522
rwrist 9.10132
rhand -17.0234 14.086
rfingers 7.12502
rthumb 9.21275 -15.6927
lclavicle 1.56341e-014 -4.24902e-015
lhumerus -36.1443 10.0955 80.9023
lradius 22.2419
lwrist -6.00261
lhand -11.3189 12.5778
lfingers 7.12502
lthumb 14.7133 42.0356
rfemur -17.5446 -2.21661 29.3527
rtibia 28.3331
rfoot -22.6176 -28.8748
rtoes 28.263
lfemur 2.14328 13.7882 -21.9281
ltibia 43.9992
lfoot 0.843602 6.57262
ltoes -12.1552
457
root 17.5339 15.8686 -13.6819 -183.49 72.8102 -183.009
lowerback 5.95171 -1.12105 -0.686358
upperback -1.35435 -1.55843 -0.216765
thorax -4.72896 -0.755565 0.315599
lowerneck -8.08883 -11.6574 -15.5433
upperneck 27.2777 -16.7219 13.3087
head 12.9822 -7.40958 5.25497
rclavicle -5.92918e-015 -4.02539e-015
rhumerus -40.364 -0.919051 -84.6997
rradius 30.1636
rwrist 9.01967
rhand -17.085 14.1859
rfingers 7.12502
rthumb 9.15337 -15.5955
lclavicle -5.92918e-015 -4.02539e-015
lhumerus -36.07 10.0506 80.7675
lradius 22.0158
lwrist -6.03226
lhand -11.5653 12.5815
lfingers 7.12502
lthumb 14.4758 42.0565
rfemur -17.0559 -2.16877 29.9001
rtibia 28.0959
rfoot -21.98 -28.794
rtoes 27.4419
lfemur 1.35127 14.0482 -21.1308
ltibia 45.8109
lfoot 2.00765 6.26203
ltoes -11.3816
458
root 17.594 15.8662 -13.6918 -182.363 73.4281 -181.792
lowerback 6.04426 -1.07498 -0.358432
upperback -1.33031 -1.46912 -0.146741
thorax -4.76347 -0.719568 0.197038
lowerneck -8.03686 -11.7518 -15.5109
upperneck 27.4562 -16.8864 13.2991
head 13.0725 -7.47619 5.22324
rclavicle 1.14369e-014 1.71452e-015
rhumerus -40.3033 -0.928029 -84.8206
rradius 30.3803
rwrist 8.86328
rhand -17.0051 14.3376
rfingers 7.12502
rthumb 9.2304 -15.4404
lclavicle 1.14369e-014 1.71452e-015
lhumerus -36.0396 9.85022 80.6264
lradius 21.8789
lwrist -6.03822
lhand -11.371 12.7957
lfingers 7.12502
lthumb 14.6631 42.2572
rfemur -16.6945 -1.73027 30.395
rtibia 27.9512
rfoot -21.6367 -28.8947
rtoes 26.903
lfemur 0.462936 14.2252 -20.4239
ltibia 47.5647
lfoot 3.60908 5.75203
ltoes -11.1928
459
root 17.6559 15.867 -13.7002 -181.59 74.0487 -180.999
lowerback 6.05471 -1.07441 -0.271789
upperback -1.31209 -1.45712 -0.0478755
thorax -4.75001 -0.714754 0.249554
lowerneck -8.05218 -11.7563 -15.4625
upperneck 27.6377 -16.8962 13.2244
head 13.14 -7.47828 5.18942
rclavicle 6.32199e-015 -6.21202e-017
rhumerus -40.2397 -0.61797 -84.9923
rradius 30.6478
rwrist 8.67418
rhand -16.9165 14.3196
rfingers 7.12502
rthumb 9.31587 -15.4545
lclavicle 6.32199e-015 -6.21202e-017
lhumerus -36.0167 10.3339 80.2456
lradius 21.6177
lwrist -6.49543
lhand -11.0301 13.1512
lfingers 7.12502
lthumb 14.9915 42.5885
rfemur -16.4018 -1.30383 30.7354
rtibia 27.8595
rfoot -20.8575 -29.0807
rtoes 25.6093
lfemur -0.494032 14.3733 -19.8578
ltibia 49.2898
lfoot 5.38322 5.09379
ltoes -10.9082
460
root 17.7156 15.8628 -13.7095 -181.428 74.6046 -180.848
lowerback 6.06976 -1.08481 -0.369585
upperback -1.30248 -1.47668 -0.00481952
thorax -4.74482 -0.721083 0.351103
lowerneck -8.04437 -11.7596 -15.3819
upperneck 27.7258 -16.9124 13.1706
head 13.1631 -7.48192 5.15531
rclavicle -6.12918e-015 -4.90128e-015
rhumerus -40.0861 -0.407406 -85.123
rradius 30.7031
rwrist 8.5795
rhand -16.9198 14.1831
rfingers 7.12502
rthumb 9.31274 -15.5912
lclavicle -6.12918e-015 -4.90128e-015
lhumerus -36.0076 10.875 79.8181
lradius 21.4134
lwrist -6.93961
lhand -11.0452 13.2984
lfingers 7.12502
lthumb 14.977 42.7368
rfemur -16.1982 -0.91981 30.8672
rtibia 27.9172
rfoot -20.1928 -29.3131
rtoes 23.9078
lfemur -1.43887 14.5154 -19.4952
ltibia 50.8967
lfoot 6.9715 4.74412
ltoes -9.84859
461
root 17.7692 15.8572 -13.7167 -180.695 75.1152 -180.06
lowerback 6.16934 -1.08938 -0.280602
upperback -1.28029 -1.47277 0.0657462
thorax -4.77851 -0.720473 0.375726
lowerneck -7.96189 -11.7776 -15.3897
upperneck 27.7647 -16.9678 13.2219
head 13.1794 -7.50483 5.17217
rclavicle 1.35517e-014 -3.71945e-015
rhumerus -39.9231 -0.447591 -85.1872
rradius 30.7045
rwrist 8.52754
rhand -17.1482 14.1695
rfingers 7.12502
rthumb 9.09239 -15.6145
lclavicle 1.35517e-014 -3.71945e-015
lhumerus -35.9587 11.0725 79.5305
lradius 21.3269
lwrist -7.0385
lhand -11.2804 12.9864
lfingers 7.12502
lthumb 14.7504 42.4415
rfemur -16.0234 -0.534373 31.1835
rtibia 28.1002
rfoot -20.0351 -29.4976
rtoes 23.0108
lfemur -2.34344 14.4986 -18.9827
ltibia 52.3945
lfoot 8.49336 4.23316
ltoes -11.3975
462
root 17.8172 15.8512 -13.7286 -181.192 75.5676 -180.552
lowerback 6.26863 -1.08312 -0.458892
upperback -1.25104 -1.47893 0.0647577
thorax -4.79976 -0.718389 0.477102
lowerneck -7.8753 -11.8271 -15.5874
upperneck 27.8367 -17.0625 13.3563
head 13.248 -7.55485 5.24636
rclavicle 2.70932e-014 -8.51047e-016
rhumerus -39.8106 -0.423929 -85.2051
rradius 30.8877
rwrist 8.41526
rhand -17.2573 14.2093
rfingers 7.12502
rthumb 8.98709 -15.5792
lclavicle 2.70932e-014 -8.51047e-016
lhumerus -35.879 11.2495 79.3927
lradius 21.3293
lwrist -7.09751
lhand -11.2833 12.7798
lfingers 7.12502
lthumb 14.7476 42.2352
rfemur -15.8718 -0.423433 31.109
rtibia 28.2752
rfoot -19.9743 -29.2876
rtoes 22.6628
lfemur -3.26692 14.336 -18.9384
ltibia 53.7809
lfoot 9.95779 3.43519
ltoes -14.1703
463
root 17.8651 15.8475 -13.7456 -182.824 75.9308 -182.139
lowerback 6.40399 -1.11086 -0.854566
upperback -1.17329 -1.55127 -0.000119007
thorax -4.7861 -0.744121 0.641247
lowerneck -7.93375 -11.9027 -15.6871
upperneck 27.9339 -17.1594 13.3405
head 13.33 -7.60639 5.23616
rclavicle -1.57101e-014 1.6524e-015
rhumerus -39.621 -0.357721 -85.2078
rradius 31.0878
rwrist 8.32938
rhand -17.2163 14.1448
rfingers 7.12502
rthumb 9.02659 -15.6421
lclavicle -1.57101e-014 1.6524e-015
lhumerus -35.7801 11.1591 79.4616
lradius 21.4716
lwrist -6.86382
lhand -11.4039 13.0204
lfingers 7.12502
lthumb 14.6313 42.4842
rfemur -15.6079 -0.558896 30.7024
rtibia 28.3949
rfoot -19.9839 -28.8011
rtoes 22.8163
lfemur -4.10781 14.0038 -19.2649
ltibia 55.0819
lfoot 11.2676 2.77959
ltoes -14.7034
464
root 17.9148 15.8448 -13.756 -181.818 76.3865 -180.921
lowerback 6.62102 -1.14885 -0.637789
upperback -1.07094 -1.58 0.106703
thorax -4.80456 -0.762785 0.636916
lowerneck -7.98935 -11.952 -15.6053
upperneck 28.044 -17.2195 13.2174
head 13.3762 -7.63392 5.16164
rclavicle 2.3355e-014 -6.4605e-016
rhumerus -39.3365 -0.456458 -85.2078
rradius 31.0821
rwrist 8.49127
rhand -17.1947 14.0276
rfingers 7.12502
rthumb 9.0475 -15.7583
lclavicle 2.3355e-014 -6.4605e-016
lhumerus -35.74 11.2155 79.3599
lradius 21.6448
lwrist -6.80838
lhand -11.5821 13.183
lfingers 7.12502
lthumb 14.4597 42.6592
rfemur -15.2037 -0.307067 31.0649
rtibia 28.487
rfoot -20.3236 -28.5828
rtoes 23.5179
lfemur -4.88403 13.7753 -18.7038
ltibia 56.4179
lfoot 11.8985 2.49938
ltoes -14.4236
465
root 17.9625 15.843 -13.7663 -180.64 76.9107 -179.616
lowerback 6.74363 -1.16548 -0.391951
upperback -0.99898 -1.57768 0.187824
thorax -4.80324 -0.767161 0.584652
lowerneck -7.79 -11.9768 -15.6473
upperneck 28.0117 -17.2923 13.2922
head 13.3479 -7.67316 5.19356
rclavicle 4.94293e-014 5.71506e-016
rhumerus -39.0379 -0.467716 -85.3043
rradius 31.0024
rwrist 8.61397
rhand -17.2123 13.9746
rfingers 7.12502
rthumb 9.03044 -15.8121
lclavicle 4.94293e-014 5.71506e-016
lhumerus -35.7917 11.5944 79.0028
lradius 21.8765
lwrist -7.19868
lhand -11.2556 13.0322
lfingers 7.12502
lthumb 14.7743 42.4856
rfemur -14.8245 0.0316124 31.4282
rtibia 28.4412
rfoot -20.4236 -28.4358
rtoes 23.6094
lfemur -5.76431 13.5213 -18.1814
ltibia 57.7484
lfoot 11.6056 2.66113
ltoes -15.1078
